<svg width="754" height="339" viewBox="0 0 754 339" fill="none" xmlns="http://www.w3.org/2000/svg">
<path fill-rule="evenodd" clip-rule="evenodd" d="M219.065 203.085V218.73L251.006 218.73V203.091C251.009 211.729 258.158 218.73 266.977 218.73H282.947V187.44H266.977C275.797 187.44 282.947 180.436 282.947 171.796L282.947 156.151H251.006V171.796C251.006 163.155 243.856 156.151 235.035 156.151H219.065V187.44H235.029C226.211 187.444 219.065 194.447 219.065 203.085Z" fill="#D9ECF9"/>
<path d="M266.977 217.73C258.82 217.73 252.218 211.361 252.011 203.468L252.006 203.091H250.006V217.73H220.064V203.085C220.064 195.019 226.744 188.444 235.029 188.441V186.441H220.064V157.151H235.035C243.193 157.151 249.797 163.523 250.001 171.418L250.006 171.795H252.006V157.151H281.947V171.795C281.947 179.864 275.264 186.441 266.977 186.441V188.441H281.947V217.73H266.977Z" stroke="#D9ECF9" stroke-opacity="0.5" stroke-width="2"/>
<path fill-rule="evenodd" clip-rule="evenodd" d="M156.477 140.506V156.151L187.766 156.151V140.512C187.77 149.15 194.773 156.151 203.411 156.151H219.056V124.861H203.411C212.051 124.861 219.056 117.857 219.056 109.217L219.056 93.5719H187.766V109.217C187.766 100.576 180.762 93.5719 172.121 93.5719H156.477V124.861H172.115C163.478 124.865 156.477 131.868 156.477 140.506Z" fill="#D9ECF9"/>
<path d="M203.411 155.151C195.325 155.151 188.77 148.597 188.767 140.512H186.767V155.151H157.477V140.506C157.477 132.42 164.03 125.865 172.115 125.862V123.862H157.477V94.5718H172.121C180.083 94.5718 186.561 100.925 186.762 108.838L186.767 109.216H188.767V94.5718H218.056V109.216C218.056 117.304 211.499 123.862 203.411 123.862V125.862H218.056V155.151H203.411Z" stroke="#D9ECF9" stroke-opacity="0.5" stroke-width="2"/>
<path fill-rule="evenodd" clip-rule="evenodd" d="M62.6095 234.372V250.017L93.899 250.017V234.379C93.9023 243.016 100.905 250.017 109.544 250.017H125.188V218.728H109.544C118.184 218.728 125.188 211.723 125.188 203.083L125.188 187.438H93.899V203.083C93.899 194.443 86.8945 187.438 78.2542 187.438H62.6095V218.728H78.248C69.6105 218.731 62.6095 225.734 62.6095 234.372Z" fill="#D9ECF9"/>
<path d="M109.544 249.017C101.458 249.017 94.9027 242.464 94.8994 234.378H92.8994V249.017H63.6094V234.373C63.6094 226.287 70.1628 219.731 78.248 219.728V217.728H63.6094V188.438H78.2539C86.2154 188.438 92.6939 194.791 92.8945 202.705L92.8994 203.083H94.8994V188.438H124.188V203.083C124.188 211.17 117.632 217.728 109.544 217.728V219.728H124.188V249.017H109.544Z" stroke="#D9ECF9" stroke-opacity="0.5" stroke-width="2"/>
<path fill-rule="evenodd" clip-rule="evenodd" d="M314.294 212.117C314.294 215.941 317.393 219.04 321.216 219.04H338.837C342.66 219.04 345.76 215.941 345.76 212.117V194.27C345.76 190.447 342.66 187.348 338.837 187.348H321.216C317.393 187.348 314.294 184.248 314.294 180.425V163.03C314.294 159.207 311.194 156.108 307.371 156.108H289.75C285.927 156.108 282.827 159.207 282.827 163.03V180.878C282.827 184.701 285.927 187.8 289.75 187.8H307.371C311.194 187.8 314.294 190.9 314.294 194.723V212.117Z" fill="#D9ECF9"/>
<path d="M338.837 218.04H321.216C317.945 218.04 315.294 215.388 315.294 212.117V194.723C315.294 190.347 311.746 186.8 307.371 186.8H289.75C286.479 186.8 283.827 184.149 283.827 180.878V163.03C283.827 159.759 286.479 157.107 289.75 157.107H307.371C310.642 157.108 313.294 159.759 313.294 163.03V180.425C313.294 184.8 316.84 188.348 321.216 188.348H338.837C342.108 188.348 344.76 190.999 344.76 194.27V212.117C344.76 215.388 342.108 218.04 338.837 218.04Z" stroke="#D9ECF9" stroke-opacity="0.5" stroke-width="2"/>
<path fill-rule="evenodd" clip-rule="evenodd" d="M187.615 86.346C187.615 90.1196 190.714 93.1787 194.537 93.1787H212.158C215.982 93.1787 219.081 90.1196 219.081 86.346V68.7304C219.081 64.9568 215.982 61.8978 212.158 61.8978H194.537C190.714 61.8978 187.615 58.8386 187.615 55.0651V37.8962C187.615 34.1227 184.515 31.0635 180.692 31.0635H163.071C159.248 31.0635 156.149 34.1227 156.149 37.8962V55.512C156.149 59.2855 159.248 62.3446 163.071 62.3446H180.692C184.515 62.3446 187.615 65.4036 187.615 69.1772V86.346Z" fill="#D9ECF9"/>
<path d="M212.158 92.1787H194.537C191.254 92.1786 188.615 89.5546 188.615 86.3457V69.1768C188.615 64.8389 185.055 61.3448 180.692 61.3447H163.071C159.788 61.3447 157.148 58.7206 157.148 55.5117V37.8965C157.148 34.6876 159.788 32.0635 163.071 32.0635H180.692C183.976 32.0636 186.615 34.6876 186.615 37.8965V55.0654C186.615 59.4033 190.174 62.8973 194.537 62.8975H212.158C215.442 62.8975 218.081 65.5215 218.081 68.7305V86.3457C218.081 89.5547 215.442 92.1787 212.158 92.1787Z" stroke="#D9ECF9" stroke-opacity="0.5" stroke-width="2"/>
<path fill-rule="evenodd" clip-rule="evenodd" d="M125.09 300.477C125.09 304.251 128.149 307.31 131.923 307.31H149.315C153.088 307.31 156.147 304.251 156.147 300.477V282.862C156.147 279.088 153.088 276.029 149.315 276.029H131.923C128.149 276.029 125.09 272.97 125.09 269.196V252.028C125.09 248.254 122.031 245.195 118.257 245.195H100.865C97.0914 245.195 94.0323 248.254 94.0323 252.028V269.643C94.0323 273.417 97.0914 276.476 100.865 276.476H118.257C122.031 276.476 125.09 279.535 125.09 283.309V300.477Z" fill="#D9ECF9"/>
<path d="M149.314 306.31H131.923C128.702 306.31 126.09 303.698 126.09 300.477V283.308C126.09 278.982 122.582 275.476 118.257 275.476H100.865C97.644 275.476 95.0322 272.864 95.0322 269.643V252.028C95.0322 248.807 97.644 246.195 100.865 246.195H118.257C121.478 246.195 124.09 248.807 124.09 252.028V269.197C124.09 273.522 127.597 277.029 131.923 277.029H149.314C152.536 277.029 155.147 279.641 155.147 282.862V300.477C155.147 303.698 152.536 306.31 149.314 306.31Z" stroke="#D9ECF9" stroke-opacity="0.5" stroke-width="2"/>
<path fill-rule="evenodd" clip-rule="evenodd" d="M62.5621 118.132C62.5621 121.955 65.6614 125.054 69.4846 125.054H87.1057C90.929 125.054 94.0283 121.955 94.0283 118.132V100.284C94.0283 96.4609 90.929 93.3617 87.1057 93.3617H69.4846C65.6614 93.3617 62.5621 90.2623 62.5621 86.4391V69.0443C62.5621 65.2211 59.4626 62.1217 55.6395 62.1217H38.0184C34.1952 62.1217 31.0958 65.2211 31.0958 69.0443V86.8919C31.0958 90.7151 34.1952 93.8143 38.0184 93.8143H55.6395C59.4626 93.8143 62.5621 96.9137 62.5621 100.737V118.132Z" fill="#D9ECF9"/>
<path d="M87.1055 124.054H69.4844C66.2135 124.054 63.5625 121.402 63.5625 118.131V100.737C63.5624 96.3614 60.015 92.8141 55.6396 92.814H38.0186C34.7477 92.814 32.0958 90.1629 32.0957 86.8921V69.0444C32.0957 65.7736 34.7477 63.1216 38.0186 63.1216H55.6396C58.9104 63.1217 61.5625 65.7736 61.5625 69.0444V86.439C61.5625 90.8143 65.109 94.3617 69.4844 94.3618H87.1055C90.3763 94.3618 93.0281 97.013 93.0283 100.284V118.131C93.0283 121.402 90.3764 124.054 87.1055 124.054Z" stroke="#D9ECF9" stroke-opacity="0.5" stroke-width="2"/>
<path fill-rule="evenodd" clip-rule="evenodd" d="M125.09 180.335C125.09 184.109 128.149 187.168 131.923 187.168H149.315C153.088 187.168 156.147 184.109 156.147 180.335V162.72C156.147 158.946 153.088 155.887 149.315 155.887H131.923C128.149 155.887 125.09 152.828 125.09 149.054V131.885C125.09 128.112 122.031 125.053 118.257 125.053H100.865C97.0914 125.053 94.0323 128.112 94.0323 131.885V149.501C94.0323 153.275 97.0914 156.334 100.865 156.334H118.257C122.031 156.334 125.09 159.393 125.09 163.166V180.335Z" fill="#D9ECF9"/>
<path d="M149.314 186.168H131.923C128.702 186.168 126.09 183.556 126.09 180.335V163.166C126.09 158.84 122.582 155.334 118.257 155.334H100.865C97.644 155.334 95.0322 152.722 95.0322 149.501V131.886C95.0322 128.665 97.644 126.053 100.865 126.053H118.257C121.478 126.053 124.09 128.665 124.09 131.886V149.055C124.09 153.38 127.597 156.887 131.923 156.887H149.314C152.536 156.887 155.147 159.498 155.147 162.72V180.335C155.147 183.556 152.536 186.168 149.314 186.168Z" stroke="#D9ECF9" stroke-opacity="0.5" stroke-width="2"/>
<path fill-rule="evenodd" clip-rule="evenodd" d="M31.4664 243.178C31.4664 247.002 34.5657 250.101 38.3889 250.101H56.01C59.8333 250.101 62.9326 247.002 62.9326 243.178V225.331C62.9326 221.508 59.8333 218.409 56.01 218.409H38.3889C34.5657 218.409 31.4664 215.309 31.4664 211.486V194.091C31.4664 190.268 28.3669 187.169 24.5438 187.169H6.92269C3.09954 187.169 0.000108899 190.268 0.000108899 194.091V211.939C0.000108899 215.762 3.09954 218.861 6.92269 218.861H24.5438C28.3669 218.861 31.4664 221.961 31.4664 225.784V243.178Z" fill="#D9ECF9"/>
<path d="M56.0098 249.101H38.3887C35.1178 249.101 32.4668 246.449 32.4668 243.178V225.784C32.4667 221.408 28.9193 217.861 24.5439 217.861H6.92285C3.65201 217.861 1.00009 215.21 1 211.939V194.091C1 190.82 3.65199 188.168 6.92285 188.168H24.5439C27.8147 188.169 30.4668 190.82 30.4668 194.091V211.486C30.4668 215.861 34.0133 219.409 38.3887 219.409H56.0098C59.2806 219.409 61.9324 222.06 61.9326 225.331V243.178C61.9326 246.449 59.2807 249.101 56.0098 249.101Z" stroke="#D9ECF9" stroke-opacity="0.5" stroke-width="2"/>
<path fill-rule="evenodd" clip-rule="evenodd" d="M62.5621 55.287C62.5621 59.0605 65.6614 62.1196 69.4846 62.1196H87.1057C90.929 62.1196 94.0283 59.0605 94.0283 55.287V37.6713C94.0283 33.8977 90.929 30.8387 87.1057 30.8387H69.4846C65.6614 30.8387 62.5621 27.7795 62.5621 24.006V6.83709C62.5621 3.06359 59.4626 0.00442293 55.6395 0.00442293H38.0184C34.1952 0.00442293 31.0958 3.06359 31.0958 6.83709V24.453C31.0958 28.2265 34.1952 31.2855 38.0184 31.2855H55.6395C59.4626 31.2855 62.5621 34.3446 62.5621 38.1182V55.287Z" fill="#D9ECF9"/>
<path d="M87.1055 61.1196H69.4844C66.2012 61.1195 63.5625 58.4955 63.5625 55.2866V38.1177C63.5622 33.7798 60.0025 30.2857 55.6396 30.2856H38.0186C34.7353 30.2856 32.0957 27.6615 32.0957 24.4526V6.8374C32.0957 3.62847 34.7353 1.00439 38.0186 1.00439H55.6396C58.9228 1.00448 61.5625 3.62852 61.5625 6.8374V24.0063C61.5627 28.3442 65.1214 31.8382 69.4844 31.8384H87.1055C90.3888 31.8384 93.0283 34.4624 93.0283 37.6714V55.2866C93.0283 58.4956 90.3888 61.1196 87.1055 61.1196Z" stroke="#D9ECF9" stroke-opacity="0.5" stroke-width="2"/>
<path fill-rule="evenodd" clip-rule="evenodd" d="M125.09 118.132C125.09 121.955 128.149 125.054 131.923 125.054H149.315C153.088 125.054 156.147 121.955 156.147 118.132V100.284C156.147 96.4609 153.088 93.3617 149.315 93.3617H131.923C128.149 93.3617 125.09 90.2623 125.09 86.4391V69.0443C125.09 65.2211 122.031 62.1217 118.257 62.1217H100.865C97.0914 62.1217 94.0323 65.2211 94.0323 69.0443V86.8919C94.0323 90.7151 97.0914 93.8143 100.865 93.8143H118.257C122.031 93.8143 125.09 96.9137 125.09 100.737V118.132Z" fill="#D9ECF9"/>
<path d="M149.314 124.054H131.923C128.714 124.054 126.09 121.415 126.09 118.131V100.737C126.09 96.3737 122.595 92.814 118.257 92.814H100.865C97.6563 92.814 95.0323 90.1752 95.0322 86.8921V69.0444C95.0322 65.7612 97.6563 63.1216 100.865 63.1216H118.257C121.466 63.1216 124.09 65.7612 124.09 69.0444V86.439C124.09 90.802 127.585 94.3618 131.923 94.3618H149.314C152.523 94.3618 155.147 97.0006 155.147 100.284V118.131C155.147 121.415 152.523 124.054 149.314 124.054Z" stroke="#D9ECF9" stroke-opacity="0.5" stroke-width="2"/>
<path fill-rule="evenodd" clip-rule="evenodd" d="M187.615 212.118C187.615 215.941 190.714 219.041 194.537 219.041H212.158C215.982 219.041 219.081 215.941 219.081 212.118V194.27C219.081 190.447 215.982 187.348 212.158 187.348H194.537C190.714 187.348 187.615 184.249 187.615 180.425V163.031C187.615 159.207 184.515 156.108 180.692 156.108H163.071C159.248 156.108 156.149 159.207 156.149 163.031V180.878C156.149 184.701 159.248 187.801 163.071 187.801H180.692C184.515 187.801 187.615 190.9 187.615 194.723V212.118Z" fill="#D9ECF9"/>
<path d="M212.158 218.041H194.537C191.266 218.04 188.615 215.389 188.615 212.118V194.723C188.615 190.348 185.068 186.8 180.692 186.8H163.071C159.8 186.8 157.149 184.149 157.148 180.878V163.031C157.148 159.76 159.8 157.108 163.071 157.108H180.692C183.963 157.108 186.615 159.76 186.615 163.031V180.425C186.615 184.801 190.162 188.348 194.537 188.348H212.158C215.429 188.348 218.081 190.999 218.081 194.27V212.118C218.081 215.389 215.429 218.041 212.158 218.041Z" stroke="#D9ECF9" stroke-opacity="0.5" stroke-width="2"/>
<path fill-rule="evenodd" clip-rule="evenodd" d="M345.36 274.325C345.36 278.099 348.459 281.158 352.282 281.158H369.904C373.727 281.158 376.826 278.099 376.826 274.325V256.709C376.826 252.936 373.727 249.877 369.904 249.877H352.282C348.459 249.877 345.36 246.818 345.36 243.044V225.875C345.36 222.102 342.26 219.043 338.437 219.043H320.816C316.993 219.043 313.894 222.102 313.894 225.875V243.491C313.894 247.265 316.993 250.324 320.816 250.324H338.437C342.26 250.324 345.36 253.383 345.36 257.156V274.325Z" fill="#D9ECF9"/>
<path d="M369.903 280.158H352.282C348.999 280.158 346.36 277.534 346.36 274.325V257.156C346.36 252.818 342.8 249.324 338.438 249.324H320.816C317.533 249.324 314.894 246.7 314.894 243.491V225.875C314.894 222.667 317.533 220.042 320.816 220.042H338.438C341.721 220.043 344.36 222.667 344.36 225.875V243.044C344.361 247.382 347.919 250.876 352.282 250.876H369.903C373.187 250.876 375.826 253.5 375.826 256.709V274.325C375.826 277.534 373.187 280.158 369.903 280.158Z" stroke="#D9ECF9" stroke-opacity="0.5" stroke-width="2"/>
<path fill-rule="evenodd" clip-rule="evenodd" d="M314.294 305.383C314.294 309.156 317.393 312.215 321.216 312.215H338.837C342.66 312.215 345.76 309.156 345.76 305.383V287.767C345.76 283.993 342.66 280.934 338.837 280.934H321.216C317.393 280.934 314.294 277.875 314.294 274.102V256.933C314.294 253.159 311.194 250.1 307.371 250.1H289.75C285.927 250.1 282.827 253.159 282.827 256.933V274.549C282.827 278.322 285.927 281.381 289.75 281.381H307.371C311.194 281.381 314.294 284.44 314.294 288.214V305.383Z" fill="#D9ECF9"/>
<path d="M338.837 311.215H321.216C317.933 311.215 315.294 308.591 315.294 305.382V288.213C315.294 283.875 311.734 280.381 307.371 280.381H289.75C286.467 280.381 283.827 277.757 283.827 274.548V256.933C283.827 253.724 286.467 251.1 289.75 251.1H307.371C310.654 251.1 313.294 253.724 313.294 256.933V274.102C313.294 278.44 316.853 281.934 321.216 281.934H338.837C342.12 281.934 344.76 284.558 344.76 287.767V305.382C344.76 308.591 342.12 311.215 338.837 311.215Z" stroke="#D9ECF9" stroke-opacity="0.5" stroke-width="2"/>
<path fill-rule="evenodd" clip-rule="evenodd" d="M250.951 275.78C250.951 279.653 254.091 282.793 257.964 282.793H275.814C279.687 282.793 282.826 279.653 282.826 275.78V257.701C282.826 253.828 279.687 250.689 275.814 250.689H257.964C254.091 250.689 250.951 247.549 250.951 243.676V226.056C250.951 222.183 247.812 219.043 243.939 219.043H226.089C222.216 219.043 219.076 222.183 219.076 226.056V244.135C219.076 248.008 222.216 251.147 226.089 251.147H243.939C247.812 251.147 250.951 254.287 250.951 258.16V275.78Z" fill="#D9ECF9"/>
<path d="M275.813 281.793H257.964C254.643 281.793 251.951 279.101 251.951 275.78V258.16C251.951 253.735 248.364 250.147 243.938 250.147H226.089C222.768 250.147 220.076 247.455 220.076 244.135V226.056C220.076 222.735 222.768 220.043 226.089 220.043H243.938C247.259 220.043 249.951 222.735 249.951 226.056V243.677C249.951 248.102 253.539 251.688 257.964 251.688H275.813C279.134 251.688 281.826 254.381 281.826 257.701V275.78C281.826 279.101 279.134 281.793 275.813 281.793Z" stroke="#D9ECF9" stroke-opacity="0.5" stroke-width="2"/>
<path fill-rule="evenodd" clip-rule="evenodd" d="M187.615 331.536C187.615 335.31 190.714 338.369 194.537 338.369H212.158C215.982 338.369 219.081 335.31 219.081 331.536V313.921C219.081 310.147 215.982 307.088 212.158 307.088H194.537C190.714 307.088 187.615 304.029 187.615 300.256V283.087C187.615 279.313 184.515 276.254 180.692 276.254H163.071C159.248 276.254 156.149 279.313 156.149 283.087V300.702C156.149 304.476 159.248 307.535 163.071 307.535H180.692C184.515 307.535 187.615 310.594 187.615 314.368V331.536Z" fill="#D9ECF9"/>
<path d="M212.158 337.369H194.537C191.254 337.369 188.615 334.745 188.615 331.536V314.367C188.615 310.029 185.055 306.535 180.692 306.535H163.071C159.788 306.535 157.148 303.911 157.148 300.702V283.087C157.148 279.878 159.788 277.254 163.071 277.254H180.692C183.976 277.254 186.615 279.878 186.615 283.087V300.256C186.615 304.594 190.174 308.088 194.537 308.088H212.158C215.442 308.088 218.081 310.712 218.081 313.921V331.536C218.081 334.745 215.442 337.369 212.158 337.369Z" stroke="#D9ECF9" stroke-opacity="0.5" stroke-width="2"/>
<path fill-rule="evenodd" clip-rule="evenodd" d="M534.585 203.082V218.727L502.644 218.727V203.088C502.641 211.726 495.492 218.727 486.673 218.727H470.703V187.437H486.673C477.853 187.437 470.703 180.433 470.703 171.792L470.703 156.148H502.644V171.792C502.644 163.152 509.794 156.148 518.615 156.148H534.585V187.437H518.621C527.438 187.44 534.585 194.444 534.585 203.082Z" fill="#D9ECF9"/>
<path d="M486.673 217.727C494.829 217.727 501.432 211.358 501.639 203.465L501.644 203.088H503.644V217.727H533.585V203.082C533.585 195.015 526.905 188.441 518.621 188.438V186.438H533.585V157.147H518.615C510.457 157.147 503.853 163.52 503.649 171.415L503.644 171.792H501.644V157.147H471.703V171.792C471.703 179.861 478.386 186.438 486.673 186.438V188.438H471.703V217.727H486.673Z" stroke="#D9ECF9" stroke-opacity="0.5" stroke-width="2"/>
<path fill-rule="evenodd" clip-rule="evenodd" d="M597.172 140.502V156.146L565.882 156.146V140.508C565.879 149.145 558.876 156.146 550.238 156.146H534.593V124.857H550.238C541.597 124.857 534.593 117.853 534.593 109.212L534.593 93.5675H565.882V109.212C565.882 100.572 572.887 93.5675 581.527 93.5675H597.172V124.857H581.533C590.171 124.86 597.172 131.863 597.172 140.502Z" fill="#D9ECF9"/>
<path d="M550.237 155.146C558.323 155.146 564.879 148.593 564.882 140.508H566.882V155.146H596.172V140.502C596.172 132.416 589.618 125.861 581.533 125.857V123.857H596.172V94.5674H581.527C573.566 94.5674 567.087 100.921 566.887 108.834L566.882 109.212H564.882V94.5674H535.593V109.212C535.593 117.3 542.149 123.857 550.237 123.857V125.857H535.593V155.146H550.237Z" stroke="#D9ECF9" stroke-opacity="0.5" stroke-width="2"/>
<path fill-rule="evenodd" clip-rule="evenodd" d="M691.041 234.368V250.013L659.751 250.013V234.375C659.748 243.012 652.745 250.013 644.107 250.013H628.462V218.724H644.107C635.466 218.724 628.462 211.719 628.462 203.079L628.462 187.434H659.751V203.079C659.751 194.439 666.756 187.434 675.396 187.434H691.041V218.724H675.402C684.04 218.727 691.041 225.73 691.041 234.368Z" fill="#D9ECF9"/>
<path d="M644.106 249.013C652.192 249.013 658.748 242.46 658.751 234.375H660.751V249.013H690.041V234.369C690.041 226.283 683.488 219.727 675.402 219.724V217.724H690.041V188.434H675.396C667.435 188.434 660.956 194.787 660.756 202.701L660.751 203.079H658.751V188.434H629.462V203.079C629.462 211.167 636.018 217.724 644.106 217.724V219.724H629.462V249.013H644.106Z" stroke="#D9ECF9" stroke-opacity="0.5" stroke-width="2"/>
<path fill-rule="evenodd" clip-rule="evenodd" d="M439.36 212.114C439.36 215.937 436.261 219.036 432.438 219.036H414.817C410.993 219.036 407.894 215.937 407.894 212.114V194.266C407.894 190.443 410.993 187.344 414.817 187.344H432.438C436.261 187.344 439.36 184.244 439.36 180.421V163.026C439.36 159.203 442.46 156.104 446.283 156.104H463.904C467.727 156.104 470.827 159.203 470.827 163.026V180.874C470.827 184.697 467.727 187.796 463.904 187.796H446.283C442.46 187.796 439.36 190.896 439.36 194.719V212.114Z" fill="#D9ECF9"/>
<path d="M414.817 218.036H432.438C435.709 218.036 438.36 215.384 438.36 212.113V194.719C438.36 190.343 441.907 186.796 446.283 186.796H463.904C467.175 186.796 469.827 184.145 469.827 180.874V163.026C469.827 159.756 467.175 157.104 463.904 157.104H446.283C443.012 157.104 440.36 159.756 440.36 163.026V180.421C440.36 184.796 436.813 188.344 432.438 188.344H414.817C411.546 188.344 408.894 190.995 408.894 194.266V212.113C408.894 215.384 411.546 218.036 414.817 218.036Z" stroke="#D9ECF9" stroke-opacity="0.5" stroke-width="2"/>
<path fill-rule="evenodd" clip-rule="evenodd" d="M566.034 86.3416C566.034 90.1152 562.934 93.1743 559.111 93.1743H541.49C537.667 93.1743 534.567 90.1152 534.567 86.3416V68.726C534.567 64.9524 537.667 61.8934 541.49 61.8934H559.111C562.934 61.8934 566.034 58.8342 566.034 55.0607V37.8918C566.034 34.1183 569.133 31.0591 572.956 31.0591H590.577C594.4 31.0591 597.5 34.1183 597.5 37.8918V55.5077C597.5 59.2812 594.4 62.3402 590.577 62.3402H572.956C569.133 62.3402 566.034 65.3993 566.034 69.1728V86.3416Z" fill="#D9ECF9"/>
<path d="M541.49 92.1743H559.111C562.395 92.1742 565.033 89.5502 565.033 86.3413V69.1724C565.033 64.8345 568.593 61.3404 572.956 61.3403H590.577C593.86 61.3403 596.5 58.7162 596.5 55.5073V37.8921C596.5 34.6832 593.86 32.0591 590.577 32.0591H572.956C569.673 32.0592 567.033 34.6832 567.033 37.8921V55.061C567.033 59.3989 563.474 62.8929 559.111 62.8931H541.49C538.207 62.8931 535.567 65.5171 535.567 68.7261V86.3413C535.567 89.5503 538.207 92.1743 541.49 92.1743Z" stroke="#D9ECF9" stroke-opacity="0.5" stroke-width="2"/>
<path fill-rule="evenodd" clip-rule="evenodd" d="M628.561 300.473C628.561 304.247 625.501 307.306 621.728 307.306H604.336C600.562 307.306 597.503 304.247 597.503 300.473V282.858C597.503 279.084 600.562 276.025 604.336 276.025H621.728C625.501 276.025 628.561 272.966 628.561 269.193V252.024C628.561 248.25 631.62 245.191 635.393 245.191H652.785C656.559 245.191 659.618 248.25 659.618 252.024V269.639C659.618 273.413 656.559 276.472 652.785 276.472H635.393C631.62 276.472 628.561 279.531 628.561 283.305V300.473Z" fill="#D9ECF9"/>
<path d="M604.336 306.306H621.728C624.949 306.306 627.561 303.694 627.561 300.473V283.304C627.561 278.979 631.068 275.472 635.394 275.472H652.785C656.006 275.472 658.618 272.86 658.618 269.639V252.024C658.618 248.803 656.006 246.191 652.785 246.191H635.394C632.172 246.191 629.561 248.803 629.561 252.024V269.193C629.56 273.519 626.053 277.025 621.728 277.025H604.336C601.115 277.025 598.503 279.637 598.503 282.858V300.473C598.503 303.694 601.115 306.306 604.336 306.306Z" stroke="#D9ECF9" stroke-opacity="0.5" stroke-width="2"/>
<path fill-rule="evenodd" clip-rule="evenodd" d="M691.088 118.128C691.088 121.951 687.989 125.051 684.166 125.051H666.545C662.721 125.051 659.622 121.951 659.622 118.128V100.281C659.622 96.4575 662.721 93.3583 666.545 93.3583H684.166C687.989 93.3583 691.088 90.2589 691.088 86.4357V69.0409C691.088 65.2177 694.188 62.1183 698.011 62.1183H715.632C719.455 62.1183 722.555 65.2177 722.555 69.0409V86.8885C722.555 90.7117 719.455 93.8109 715.632 93.8109H698.011C694.188 93.8109 691.088 96.9103 691.088 100.734V118.128Z" fill="#D9ECF9"/>
<path d="M666.545 124.051H684.166C687.437 124.051 690.088 121.399 690.088 118.128V100.733C690.088 96.358 693.635 92.8106 698.011 92.8105H715.632C718.903 92.8105 721.555 90.1594 721.555 86.8887V69.041C721.555 65.7701 718.903 63.1182 715.632 63.1182H698.011C694.74 63.1182 692.088 65.7702 692.088 69.041V86.4355C692.088 90.8109 688.541 94.3583 684.166 94.3584H666.545C663.274 94.3584 660.622 97.0096 660.622 100.28V118.128C660.622 121.399 663.274 124.051 666.545 124.051Z" stroke="#D9ECF9" stroke-opacity="0.5" stroke-width="2"/>
<path fill-rule="evenodd" clip-rule="evenodd" d="M628.561 180.331C628.561 184.105 625.501 187.164 621.728 187.164H604.336C600.562 187.164 597.503 184.105 597.503 180.331V162.716C597.503 158.942 600.562 155.883 604.336 155.883H621.728C625.501 155.883 628.561 152.824 628.561 149.05V131.882C628.561 128.108 631.62 125.049 635.393 125.049H652.785C656.559 125.049 659.618 128.108 659.618 131.882V149.497C659.618 153.271 656.559 156.33 652.785 156.33H635.393C631.62 156.33 628.561 159.389 628.561 163.163V180.331Z" fill="#D9ECF9"/>
<path d="M604.336 186.164H621.728C624.949 186.164 627.561 183.552 627.561 180.331V163.162C627.561 158.836 631.068 155.33 635.394 155.33H652.785C656.006 155.33 658.618 152.718 658.618 149.497V131.882C658.618 128.661 656.006 126.049 652.785 126.049H635.394C632.172 126.049 629.561 128.661 629.561 131.882V149.051C629.56 153.376 626.053 156.883 621.728 156.883H604.336C601.115 156.883 598.503 159.495 598.503 162.716V180.331C598.503 183.552 601.115 186.164 604.336 186.164Z" stroke="#D9ECF9" stroke-opacity="0.5" stroke-width="2"/>
<path fill-rule="evenodd" clip-rule="evenodd" d="M722.184 243.175C722.184 246.998 719.085 250.097 715.261 250.097H697.64C693.817 250.097 690.718 246.998 690.718 243.175V225.327C690.718 221.504 693.817 218.405 697.64 218.405H715.261C719.085 218.405 722.184 215.305 722.184 211.482V194.087C722.184 190.264 725.283 187.165 729.107 187.165H746.728C750.551 187.165 753.65 190.264 753.65 194.087V211.935C753.65 215.758 750.551 218.857 746.728 218.857H729.107C725.283 218.857 722.184 221.957 722.184 225.78V243.175Z" fill="#D9ECF9"/>
<path d="M697.641 249.097H715.262C718.533 249.097 721.184 246.445 721.184 243.174V225.78C721.184 221.404 724.731 217.857 729.106 217.857H746.728C749.998 217.857 752.65 215.206 752.65 211.935V194.087C752.65 190.817 749.998 188.165 746.728 188.165H729.106C725.836 188.165 723.184 190.817 723.184 194.087V211.482C723.184 215.857 719.637 219.405 715.262 219.405H697.641C694.37 219.405 691.718 222.056 691.718 225.327V243.174C691.718 246.445 694.37 249.097 697.641 249.097Z" stroke="#D9ECF9" stroke-opacity="0.5" stroke-width="2"/>
<path fill-rule="evenodd" clip-rule="evenodd" d="M691.088 55.2826C691.088 59.0561 687.989 62.1152 684.166 62.1152H666.545C662.721 62.1152 659.622 59.0561 659.622 55.2826V37.6669C659.622 33.8933 662.721 30.8343 666.545 30.8343H684.166C687.989 30.8343 691.088 27.7752 691.088 24.0017V6.8327C691.088 3.0592 694.188 2.8396e-05 698.011 2.8396e-05H715.632C719.455 2.8396e-05 722.555 3.0592 722.555 6.8327V24.4486C722.555 28.2221 719.455 31.2811 715.632 31.2811H698.011C694.188 31.2811 691.088 34.3402 691.088 38.1138V55.2826Z" fill="#D9ECF9"/>
<path d="M666.545 61.1152H684.166C687.449 61.1151 690.088 58.4912 690.088 55.2822V38.1133C690.088 33.7754 693.648 30.2813 698.011 30.2812H715.632C718.915 30.2812 721.555 27.6571 721.555 24.4482V6.83301C721.555 3.62408 718.915 1 715.632 1H698.011C694.728 1.00008 692.088 3.62413 692.088 6.83301V24.002C692.088 28.3398 688.529 31.8338 684.166 31.834H666.545C663.262 31.834 660.622 34.458 660.622 37.667V55.2822C660.622 58.4912 663.262 61.1152 666.545 61.1152Z" stroke="#D9ECF9" stroke-opacity="0.5" stroke-width="2"/>
<path fill-rule="evenodd" clip-rule="evenodd" d="M628.561 118.128C628.561 121.951 625.501 125.051 621.728 125.051H604.336C600.562 125.051 597.503 121.951 597.503 118.128V100.281C597.503 96.4575 600.562 93.3583 604.336 93.3583H621.728C625.501 93.3583 628.561 90.2589 628.561 86.4357V69.0409C628.561 65.2177 631.62 62.1183 635.393 62.1183H652.785C656.559 62.1183 659.618 65.2177 659.618 69.0409V86.8885C659.618 90.7117 656.559 93.8109 652.785 93.8109H635.393C631.62 93.8109 628.561 96.9103 628.561 100.734V118.128Z" fill="#D9ECF9"/>
<path d="M604.336 124.051H621.728C624.937 124.051 627.561 121.411 627.561 118.128V100.733C627.561 96.3703 631.056 92.8105 635.394 92.8105H652.785C655.994 92.8105 658.618 90.1718 658.618 86.8887V69.041C658.618 65.7578 655.994 63.1182 652.785 63.1182H635.394C632.185 63.1182 629.561 65.7578 629.561 69.041V86.4355C629.561 90.7986 626.066 94.3584 621.728 94.3584H604.336C601.127 94.3584 598.503 96.9972 598.503 100.28V118.128C598.503 121.411 601.127 124.051 604.336 124.051Z" stroke="#D9ECF9" stroke-opacity="0.5" stroke-width="2"/>
<path fill-rule="evenodd" clip-rule="evenodd" d="M566.034 212.114C566.034 215.937 562.934 219.037 559.111 219.037H541.49C537.667 219.037 534.567 215.937 534.567 212.114V194.267C534.567 190.443 537.667 187.344 541.49 187.344H559.111C562.934 187.344 566.034 184.245 566.034 180.422V163.027C566.034 159.204 569.133 156.104 572.956 156.104H590.577C594.4 156.104 597.5 159.204 597.5 163.027V180.874C597.5 184.697 594.4 187.797 590.577 187.797H572.956C569.133 187.797 566.034 190.896 566.034 194.719V212.114Z" fill="#D9ECF9"/>
<path d="M541.49 218.037H559.111C562.382 218.036 565.033 215.385 565.033 212.114V194.719C565.033 190.344 568.581 186.796 572.956 186.796H590.577C593.848 186.796 596.5 184.145 596.5 180.875V163.027C596.5 159.756 593.848 157.104 590.577 157.104H572.956C569.685 157.104 567.033 159.756 567.033 163.027V180.421C567.033 184.797 563.487 188.344 559.111 188.344H541.49C538.219 188.344 535.568 190.995 535.567 194.266V212.114C535.567 215.385 538.219 218.037 541.49 218.037Z" stroke="#D9ECF9" stroke-opacity="0.5" stroke-width="2"/>
<path fill-rule="evenodd" clip-rule="evenodd" d="M408.292 274.321C408.292 278.095 405.193 281.154 401.369 281.154H383.748C379.925 281.154 376.826 278.095 376.826 274.321V256.705C376.826 252.932 379.925 249.873 383.748 249.873H401.369C405.193 249.873 408.292 246.814 408.292 243.04V225.871C408.292 222.098 411.391 219.039 415.215 219.039H432.836C436.659 219.039 439.758 222.098 439.758 225.871V243.487C439.758 247.261 436.659 250.32 432.836 250.32H415.215C411.391 250.32 408.292 253.379 408.292 257.152V274.321Z" fill="#D9ECF9"/>
<path d="M383.749 280.154H401.37C404.653 280.154 407.292 277.53 407.292 274.321V257.152C407.292 252.814 410.852 249.32 415.214 249.32H432.835C436.119 249.32 438.758 246.696 438.758 243.487V225.872C438.758 222.663 436.119 220.039 432.835 220.039H415.214C411.931 220.039 409.292 222.663 409.292 225.872V243.041C409.291 247.378 405.733 250.872 401.37 250.873H383.749C380.465 250.873 377.826 253.497 377.826 256.706V274.321C377.826 277.53 380.465 280.154 383.749 280.154Z" stroke="#D9ECF9" stroke-opacity="0.5" stroke-width="2"/>
<path fill-rule="evenodd" clip-rule="evenodd" d="M439.36 305.379C439.36 309.152 436.261 312.211 432.438 312.211H414.817C410.993 312.211 407.894 309.152 407.894 305.379V287.763C407.894 283.989 410.993 280.931 414.817 280.931H432.438C436.261 280.931 439.36 277.871 439.36 274.098V256.929C439.36 253.155 442.46 250.096 446.283 250.096H463.904C467.727 250.096 470.827 253.155 470.827 256.929V274.545C470.827 278.318 467.727 281.377 463.904 281.377H446.283C442.46 281.377 439.36 284.436 439.36 288.21V305.379Z" fill="#D9ECF9"/>
<path d="M414.817 311.211H432.438C435.721 311.211 438.36 308.587 438.36 305.378V288.209C438.36 283.872 441.92 280.378 446.283 280.377H463.904C467.187 280.377 469.827 277.753 469.827 274.544V256.929C469.827 253.72 467.187 251.096 463.904 251.096H446.283C443 251.096 440.36 253.72 440.36 256.929V274.098C440.36 278.436 436.801 281.93 432.438 281.93H414.817C411.534 281.93 408.894 284.554 408.894 287.763V305.378C408.894 308.587 411.534 311.211 414.817 311.211Z" stroke="#D9ECF9" stroke-opacity="0.5" stroke-width="2"/>
<path fill-rule="evenodd" clip-rule="evenodd" d="M502.701 275.777C502.701 279.649 499.561 282.789 495.688 282.789H477.838C473.965 282.789 470.826 279.649 470.826 275.777V257.697C470.826 253.824 473.965 250.685 477.838 250.685H495.688C499.561 250.685 502.701 247.545 502.701 243.673V226.052C502.701 222.179 505.84 219.039 509.713 219.039H527.563C531.436 219.039 534.575 222.179 534.575 226.052V244.131C534.575 248.004 531.436 251.143 527.563 251.143H509.713C505.84 251.143 502.701 254.283 502.701 258.156V275.777Z" fill="#D9ECF9"/>
<path d="M477.838 281.789H495.688C499.009 281.789 501.701 279.097 501.701 275.776V258.156C501.701 253.731 505.288 250.144 509.713 250.144H527.563C530.884 250.144 533.576 247.451 533.576 244.131V226.052C533.576 222.731 530.884 220.039 527.563 220.039H509.713C506.393 220.039 503.701 222.731 503.701 226.052V243.673C503.7 248.098 500.113 251.685 495.688 251.685H477.838C474.518 251.685 471.826 254.377 471.826 257.697V275.776C471.826 279.097 474.518 281.789 477.838 281.789Z" stroke="#D9ECF9" stroke-opacity="0.5" stroke-width="2"/>
<path fill-rule="evenodd" clip-rule="evenodd" d="M566.034 331.533C566.034 335.306 562.934 338.365 559.111 338.365H541.49C537.667 338.365 534.567 335.306 534.567 331.533V313.917C534.567 310.143 537.667 307.084 541.49 307.084H559.111C562.934 307.084 566.034 304.025 566.034 300.252V283.083C566.034 279.309 569.133 276.25 572.956 276.25H590.577C594.4 276.25 597.5 279.309 597.5 283.083V300.699C597.5 304.472 594.4 307.531 590.577 307.531H572.956C569.133 307.531 566.034 310.59 566.034 314.364V331.533Z" fill="#D9ECF9"/>
<path d="M541.49 337.365H559.111C562.395 337.365 565.033 334.741 565.033 331.532V314.363C565.033 310.025 568.593 306.531 572.956 306.531H590.577C593.86 306.531 596.5 303.907 596.5 300.698V283.083C596.5 279.874 593.86 277.25 590.577 277.25H572.956C569.673 277.25 567.033 279.874 567.033 283.083V300.252C567.033 304.59 563.474 308.084 559.111 308.084H541.49C538.207 308.084 535.567 310.708 535.567 313.917V331.532C535.567 334.741 538.207 337.365 541.49 337.365Z" stroke="#D9ECF9" stroke-opacity="0.5" stroke-width="2"/>
</svg>
